<?xml version="1.0" encoding="utf-8"?>
<!-- Generator: Adobe Illustrator 27.0.0, SVG Export Plug-In . SVG Version: 6.00 Build 0)  -->
<svg version="1.1" id="contents" xmlns="http://www.w3.org/2000/svg" xmlns:xlink="http://www.w3.org/1999/xlink" x="0px" y="0px"
	 viewBox="0 0 488.02 490.56" style="enable-background:new 0 0 488.02 490.56;" xml:space="preserve">
<g>
	<g>
		<g>
			<path d="M285.11,390.76c-0.31-5.17-3.27-49.27-13.35-63.76c-7-10.07-25.08-13.71-46.02-17.94c-8.06-1.62-16.29-3.29-23.4-5.31
				l-9.27-16.05c-0.64-1.1-1.69-1.91-2.92-2.24c-1.01-0.27-2.07-0.2-3.04,0.19c-0.65-3.45-1.18-7.15-1.46-10.75l0-0.31
				c-0.01-2.01-0.02-5.04,1.31-6.1c16.56-13.18,27.29-30.62,30.51-49.45c4.13-2.13,9.66-5.59,14.41-10.68
				c8.24-8.82,11.46-19.69,9.34-31.44c-1.65-9.1-5.58-15.2-11.69-18.15c-1.01-0.49-2.07-0.86-3.16-1.15
				c8.38-13.55,19.36-37.34,9.28-57.56c-6.64-13.32-29.43-17.41-29.43-17.41s-2.85-24.89-18-32.54
				c-22.88-11.56-48.14-1.36-68.28,0.12c-15.31,1.12-37.14-0.45-44.29-4.5c-1.26-0.72-2.82-0.23-3.52,1.11
				c-4.12,7.83-23.85,37.79-25.92,60.67c-1.95,21.52,5.68,39.95,11.52,50.57c-0.57,0.2-1.14,0.43-1.68,0.69
				c-6.11,2.95-10.05,9.06-11.69,18.15c-2.13,11.74,1.1,22.61,9.34,31.44c4.75,5.09,10.28,8.55,14.41,10.68
				c3.23,18.83,13.96,36.27,30.51,49.45c1.33,1.06,1.32,4.09,1.31,6.1l0,0.31c-0.29,3.59-0.81,7.3-1.46,10.75
				c-0.96-0.39-2.03-0.46-3.04-0.19c-1.23,0.33-2.28,1.13-2.92,2.24l-9.27,16.05c-7.11,2.02-15.34,3.68-23.4,5.31
				c-20.94,4.22-39.02,7.87-46.02,17.94c-10.08,14.49-13.04,58.6-13.35,63.76c-0.22,3.19,0.48,8,5.04,12.91
				c17.15,18.45,81.24,27.06,134.95,27.41c0.08,0,4.58,0,4.67,0c53.7-0.35,117.8-8.96,134.95-27.41
				C284.64,398.76,285.34,393.95,285.11,390.76z M88.6,313.69l9.83-17.02l35.51,20.5l-28.92,26.71L88.6,313.69z M126.65,370.77
				l-14.02-20.84l15.46-14.28l9.19,13.76L126.65,370.77z M142.79,311.19l-32.06-18.51c0.15-0.65,0.3-1.32,0.44-2
				c1.56-7.49,2.2-14.79,2.2-15.5l0-0.52c0.02-3.75,0.05-11.56-6.38-16.68c-14.85-11.83-24.11-27.54-26.08-44.25
				c-0.28-2.39-1.81-4.44-4.02-5.39c-6.85-2.95-22.45-11.68-19.31-29.01c0.81-4.5,2.34-7.49,4.31-8.44c1.55-0.75,3.7-0.46,5.71,0.23
				l12.52,11.38c0.91,0.82,2.34,0.03,2.12-1.17c-0.79-4.34-1.99-11.66-2.36-17.84l-0.03-1.92c-0.03-1.81,0.03-3.62,0.16-5.41
				c1.47-11.06,4-14.44,4-14.44c2.06,2.49,0.19,8.5,1.23,8.13c10.19-3.63,18.17-15.41,27.52-22.19c6.64-4.81-10.88,20.35-6.49,20.5
				c16.96,0.58,66.85-23.65,66.85-23.65s4.61,10.81,7.29,24.33c0.74,3.7,17.91-8.4,17.91-8.4c4.49,7.22,5.25,30.39,4.63,40.65
				c-0.07,1.18,1.35,1.82,2.18,0.99l9.52-9.51c0.31-0.11,0.61-0.24,0.91-0.4c2.48-1.33,5.91-2.37,8.13-1.3
				c1.96,0.95,3.49,3.94,4.3,8.44c3.14,17.33-12.46,26.06-19.31,29.01c-2.21,0.95-3.74,3.01-4.02,5.39
				c-1.96,16.71-11.22,32.42-26.08,44.25c-6.43,5.12-6.4,12.93-6.38,16.68l0,0.53c0,0.71,0.63,8.01,2.2,15.5
				c0.14,0.69,0.29,1.35,0.44,2L142.79,311.19z M158.71,370.33l-10.41-20.92l9.19-13.76l14.87,13.73L158.71,370.33z M180.56,343.88
				l-28.92-26.71l35.51-20.5l9.83,17.02L180.56,343.88z"/>
		</g>
	</g>
	<g>
		<g>
			<g>
				<path d="M365.17,222.68c-1.4,3.84-5.68,5.84-9.53,4.44l-41.41-15.07c-3.84-1.4-5.84-5.68-4.44-9.53l0.04-0.11
					c1.4-3.84,5.68-5.84,9.53-4.44l41.41,15.07c3.84,1.4,5.84,5.68,4.44,9.53L365.17,222.68z"/>
			</g>
			<g>
				<path d="M318.43,190.6c-3.85-1.4-6.03-5.46-5.07-9.44c2.7-11.21,2.34-23.07-1.04-34.29c-5.66-18.81-5.49-39.8,0.45-56.13
					c5.85-16.06,17.13-27.78,32.62-33.89c14.81-5.84,32.1-5.73,48.67,0.3c16.57,6.03,29.88,17.06,37.48,31.06
					c7.94,14.63,9.05,30.86,3.2,46.93c-5.94,16.33-19.3,32.51-35.73,43.29c-9.8,6.42-17.69,15.28-22.84,25.6
					c-1.83,3.67-6.11,5.38-9.96,3.97L318.43,190.6z M365.19,190.26c6.26-10.11,14.84-18.91,24.88-25.49
					c13.39-8.78,24.64-22.28,29.35-35.23c4.26-11.72,3.52-23.01-2.21-33.57c-5.69-10.49-15.9-18.84-28.72-23.51
					c-12.83-4.67-26.01-4.83-37.12-0.45c-11.18,4.41-19.01,12.58-23.27,24.3c-4.71,12.95-4.77,30.52-0.16,45.85
					c3.46,11.49,4.38,23.75,2.68,35.52L365.19,190.26z"/>
			</g>
			<g>
				<path d="M350.62,231.4l-35.3-12.85c-3.59-1.31-7.59,0.56-8.9,4.15l-0.37,1.02c-1.31,3.59,0.56,7.59,4.15,8.9l6.87,2.5
					c0.62,4.05,3.9,7.9,8.69,9.64c4.8,1.75,9.78,0.9,12.86-1.8l6.87,2.5c3.59,1.31,7.59-0.56,8.9-4.15l0.37-1.02
					C356.08,236.71,354.21,232.7,350.62,231.4z"/>
			</g>
		</g>
		<g>
			<rect x="386.83" y="12.7" transform="matrix(0.342 -0.9397 0.9397 0.342 247.0319 396.7902)" width="40.05" height="18.6"/>
		</g>
		<g>
			<rect x="318.42" y="5.43" transform="matrix(0.9063 -0.4226 0.4226 0.9063 19.9497 140.8874)" width="18.6" height="40.05"/>
		</g>
		<g>
			<rect x="445.23" y="66.21" transform="matrix(0.9063 -0.4226 0.4226 0.9063 11.6751 203.6822)" width="40.05" height="18.6"/>
		</g>
	</g>
</g>
</svg>
