<?xml version="1.0" encoding="utf-8"?>
<!-- Generator: Adobe Illustrator 27.0.0, SVG Export Plug-In . SVG Version: 6.00 Build 0)  -->
<svg version="1.1" id="contents" xmlns="http://www.w3.org/2000/svg" xmlns:xlink="http://www.w3.org/1999/xlink" x="0px" y="0px"
	 viewBox="0 0 817.62 841.56" style="enable-background:new 0 0 817.62 841.56;" xml:space="preserve">
<path d="M653.05,3.79C648.21,1.92,643.08,1,637.99,1c-9.07,0-18.02,2.9-25,8.45L408.81,166.21L204.63,9.45
	C197.65,3.9,188.7,1,179.63,1c-5.09,0-10.22,0.92-15.06,2.79c-13.45,5.22-22.13,16.91-22.13,29.8v537.89
	c0,9.2,4.43,17.97,12.21,24.15l227.88,236.48c6.98,5.54,15.92,8.45,24.99,8.45c0.43,0,0.85-0.04,1.28-0.06
	c0.43,0.01,0.85,0.06,1.28,0.06c9.06,0,18.01-2.9,24.99-8.45l227.89-236.48c7.78-6.18,12.21-14.95,12.21-24.15V33.59
	C675.17,20.7,666.5,9.02,653.05,3.79z M401.26,788.91L185.9,565.43V49.86l215.36,165.34V788.91z"/>
</svg>
